# Blender v2.79 (sub 0) OBJ File: ''
# www.blender.org
mtllib paralelepipedo.mtl
o Cube.002
v 1.347050 -1.000000 -2.736586
v 2.752683 -1.000000 -1.313843
v -1.347051 -1.000000 2.736586
v -2.752682 -1.000000 1.313842
v 1.347052 1.000000 -2.736586
v -2.752683 1.000000 1.313843
v -1.347051 1.000000 2.736586
v 2.752682 1.000000 -1.313841
vn 0.7114 0.0000 -0.7028
vn 0.7028 -0.0000 0.7114
vn -0.0000 1.0000 0.0000
vn -0.7114 -0.0000 0.7028
vn 0.0000 -1.0000 -0.0000
vn -0.7028 0.0000 -0.7114
usemtl Material.003
s 1
f 1//1 5//1 8//1 2//1
usemtl Material.006
f 2//2 8//2 7//2 3//2
usemtl Material.007
f 5//3 6//3 7//3 8//3
usemtl Material.008
f 3//4 7//4 6//4 4//4
usemtl Material.009
f 1//5 2//5 3//5 4//5
usemtl Material.010
f 5//6 1//6 4//6 6//6
