# Blender v2.79 (sub 0) OBJ File: ''
# www.blender.org
mtllib paralelepipedo.mtl
o Cube.001
v 1.347050 -1.000000 -2.736586
v 2.752683 -1.000000 -1.313843
v -1.347051 -1.000000 2.736586
v -2.752682 -1.000000 1.313842
v 1.347052 1.000000 -2.736586
v -2.752683 1.000000 1.313843
v -1.347051 1.000000 2.736586
v 2.752682 1.000000 -1.313841
vn -0.0000 -1.0000 -0.0000
vn 0.0000 1.0000 0.0000
vn 0.7114 0.0000 -0.7028
vn 0.7028 -0.0000 0.7114
vn -0.7114 -0.0000 0.7028
vn -0.7028 0.0000 -0.7114
usemtl Material.001
s 1
f 1//1 2//1 3//1 4//1
f 5//2 6//2 7//2 8//2
f 1//3 5//3 8//3 2//3
f 2//4 8//4 7//4 3//4
f 3//5 7//5 6//5 4//5
f 5//6 1//6 4//6 6//6
